<svg xmlns="http://www.w3.org/2000/svg" viewBox="0 0 1400 900">
  <defs>
    <linearGradient id="sea" x1="0" x2="1" y1="0" y2="1">
      <stop offset="0%" stop-color="#fffef9"/>
      <stop offset="100%" stop-color="#efe7cf"/>
    </linearGradient>
    <filter id="softShadow" x="-20%" y="-20%" width="140%" height="140%">
      <feDropShadow dx="0" dy="10" stdDeviation="12" flood-color="#000000" flood-opacity="0.12"/>
    </filter>
  </defs>
  <rect width="1400" height="900" fill="url(#sea)"/>
  <rect x="92" y="78" width="1160" height="700" rx="24" fill="#fff8e5" stroke="#d7c27b" stroke-width="2" opacity="0.95"/>
  <line x1="154.9" y1="90" x2="154.9" y2="760" stroke="#d8cfb3" stroke-width="1" stroke-dasharray="6 8" opacity="0.65"/>
  <text x="160.9" y="112" font-family="Arial, sans-serif" font-size="12" fill="#8b8162">18W</text>
  <line x1="393.8" y1="90" x2="393.8" y2="760" stroke="#d8cfb3" stroke-width="1" stroke-dasharray="6 8" opacity="0.65"/>
  <text x="399.8" y="112" font-family="Arial, sans-serif" font-size="12" fill="#8b8162">10W</text>
  <line x1="692.3" y1="90" x2="692.3" y2="760" stroke="#d8cfb3" stroke-width="1" stroke-dasharray="6 8" opacity="0.65"/>
  <text x="698.3" y="112" font-family="Arial, sans-serif" font-size="12" fill="#8b8162">0E</text>
  <line x1="990.9" y1="90" x2="990.9" y2="760" stroke="#d8cfb3" stroke-width="1" stroke-dasharray="6 8" opacity="0.65"/>
  <text x="996.9" y="112" font-family="Arial, sans-serif" font-size="12" fill="#8b8162">10E</text>
  <line x1="110" y1="638.9" x2="1230" y2="638.9" stroke="#d8cfb3" stroke-width="1" stroke-dasharray="6 8" opacity="0.65"/>
  <text x="116" y="632.9" font-family="Arial, sans-serif" font-size="12" fill="#8b8162">5N</text>
  <line x1="110" y1="508.3" x2="1230" y2="508.3" stroke="#d8cfb3" stroke-width="1" stroke-dasharray="6 8" opacity="0.65"/>
  <text x="116" y="502.3" font-family="Arial, sans-serif" font-size="12" fill="#8b8162">10N</text>
  <line x1="110" y1="377.7" x2="1230" y2="377.7" stroke="#d8cfb3" stroke-width="1" stroke-dasharray="6 8" opacity="0.65"/>
  <text x="116" y="371.7" font-family="Arial, sans-serif" font-size="12" fill="#8b8162">15N</text>
  <line x1="110" y1="247.0" x2="1230" y2="247.0" stroke="#d8cfb3" stroke-width="1" stroke-dasharray="6 8" opacity="0.65"/>
  <text x="116" y="241.0" font-family="Arial, sans-serif" font-size="12" fill="#8b8162">20N</text>
  <line x1="110" y1="116.4" x2="1230" y2="116.4" stroke="#d8cfb3" stroke-width="1" stroke-dasharray="6 8" opacity="0.65"/>
  <text x="116" y="110.4" font-family="Arial, sans-serif" font-size="12" fill="#8b8162">25N</text>
  <g filter="url(#softShadow)">
    <polygon points="169.9,38.1 432.6,43.3 432.6,119.0 184.8,129.5" fill="#F1EFE6" stroke="#d8d1be" stroke-width="2" opacity="0.9"/>
    <polygon points="432.6,43.3 1170.0,43.3 1170.0,181.7 931.2,194.8 668.4,155.6 561.0,142.6 432.6,119.0" fill="#F1EFE6" stroke="#d8d1be" stroke-width="2" opacity="0.9"/>
    <polygon points="769.9,409.0 1134.2,409.0 1134.2,644.1 787.9,646.7 805.8,445.6" fill="#ECE8DB" stroke="#d8d1be" stroke-width="2" opacity="0.9"/>
    <polygon points="593.8,479.5 701.3,482.1 707.2,612.8 614.7,644.1 596.8,607.5" fill="#ECE8DB" stroke="#d8d1be" stroke-width="2" opacity="0.9"/>
    <polygon points="369.9,539.6 474.4,542.2 483.3,649.3 378.8,644.1 369.9,591.9" fill="#ECE8DB" stroke="#d8d1be" stroke-width="2" opacity="0.9"/>
    <polygon points="292.3,508.3 384.8,505.7 369.9,539.6 307.2,576.2 286.3,539.6" fill="#ECE8DB" stroke="#d8d1be" stroke-width="2" opacity="0.9"/>
    <polygon points="178.8,351.5 190.8,247.0 289.3,64.2 432.6,64.2 561.0,142.6 549.0,299.3 432.6,356.8 259.4,351.5" fill="#F4E6B2" stroke="#a88310" stroke-width="3" opacity="0.98"/>
    <polygon points="166.9,333.2 208.7,330.6 304.2,338.5 349.0,369.8 319.1,429.9 193.7,443.0 163.9,398.6" fill="#F7EBC2" stroke="#a88310" stroke-width="3" opacity="0.98"/>
    <polygon points="187.8,411.6 277.3,409.0 280.3,427.3 190.8,427.3" fill="#FCEFCB" stroke="#a88310" stroke-width="3" opacity="0.98"/>
    <polygon points="190.8,440.3 238.5,440.3 268.4,476.9 238.5,490.0 193.7,474.3" fill="#F3E1A0" stroke="#a88310" stroke-width="3" opacity="0.98"/>
    <polygon points="235.5,482.1 298.2,445.6 399.7,453.4 429.6,508.3 411.7,555.3 369.9,576.2 292.3,560.5 241.5,516.1" fill="#EFD98B" stroke="#a88310" stroke-width="3" opacity="0.98"/>
    <polygon points="334.1,121.7 572.9,124.3 647.5,247.0 578.9,372.4 355.0,385.5 313.2,299.3" fill="#F3DF9D" stroke="#a88310" stroke-width="3" opacity="0.98"/>
    <polygon points="528.1,375.0 740.1,377.7 752.0,479.5 602.8,526.6 534.1,476.9" fill="#F8E8B8" stroke="#a88310" stroke-width="3" opacity="0.98"/>
    <polygon points="668.4,155.6 931.2,194.8 1095.4,351.5 1050.6,482.1 752.0,482.1 704.3,393.3" fill="#F2D984" stroke="#a88310" stroke-width="3" opacity="0.98"/>
    <polygon points="432.6,490.0 617.7,490.0 614.7,651.9 438.6,654.6" fill="#ECCE74" stroke="#a88310" stroke-width="3" opacity="0.98"/>
    <polygon points="716.2,445.6 805.8,445.6 802.8,612.8 740.1,612.8 716.2,591.9" fill="#F8E4AB" stroke="#a88310" stroke-width="3" opacity="0.98"/>
    <polygon points="698.3,482.1 743.1,482.1 737.1,612.8 707.2,612.8" fill="#F5D76D" stroke="#a88310" stroke-width="3" opacity="0.98"/>
  </g>
  <g fill="#1d1d1b" font-family="Arial, sans-serif">
    <text x="112" y="118" font-size="22" font-weight="700">WEST AFRICA HR FOOTPRINT</text>
    <text x="112" y="146" font-size="14" fill="#5b5b5b">Geographic positioning recalibrated to actual West Africa country placement</text>
  </g>
  <g fill="#91845f" font-family="Arial, sans-serif" font-size="13">
    <text x="351.7" y="196.6" text-anchor="middle">Mauritania</text>
    <text x="243.6" y="377.7" text-anchor="middle">Senegal</text>
    <text x="234.1" y="418.8" text-anchor="middle">Gambia</text>
    <text x="226.0" y="464.4" text-anchor="middle">Guinea-Bissau</text>
    <text x="334.8" y="512.2" text-anchor="middle">Guinea</text>
    <text x="466.9" y="238.39999999999998" text-anchor="middle">Mali</text>
    <text x="631.4" y="447.1" text-anchor="middle">Burkina Faso</text>
    <text x="877.0" y="317.2" text-anchor="middle">Niger</text>
    <text x="517.9" y="559.6" text-anchor="middle">Cote d'Ivoire</text>
    <text x="756.2" y="541.7" text-anchor="middle">Benin</text>
    <text x="721.4" y="547.5" text-anchor="middle">Togo</text>
  </g>
  <g stroke="#ffcd11" stroke-width="5" fill="#1d1d1b">
    <circle cx="215.2" cy="297.5" r="10"/>
    <circle cx="170.8" cy="385.0" r="10"/>
    <circle cx="197.3" cy="418.1" r="10"/>
    <circle cx="226.9" cy="459.7" r="10"/>
    <circle cx="286.9" cy="517.7" r="10"/>
    <circle cx="453.8" cy="439.3" r="10"/>
    <circle cx="646.9" cy="446.4" r="10"/>
    <circle cx="572.3" cy="629.7" r="10"/>
    <circle cx="755.6" cy="416.6" r="10"/>
    <circle cx="764.9" cy="603.1" r="10"/>
    <circle cx="728.4" cy="609.4" r="10"/>
  </g>
  <g fill="#7d6010" font-family="Arial, sans-serif" font-size="13" font-weight="700">
    <text x="229.2" y="283.5">NKC</text>
    <text x="184.8" y="373.0">DKR</text>
    <text x="211.3" y="408.1">BJL</text>
    <text x="240.9" y="449.7">OXB</text>
    <text x="300.9" y="507.70000000000005">CKY</text>
    <text x="467.8" y="427.3">BKO</text>
    <text x="660.9" y="434.4">OUA</text>
    <text x="586.3" y="617.7">ABJ</text>
    <text x="769.6" y="404.6">NIM</text>
    <text x="778.9" y="591.1">COO</text>
    <text x="686.4" y="629.4">LFW</text>
  </g>
</svg>